<svg xmlns="http://www.w3.org/2000/svg" width="616.101" height="557.783" version="1.1" viewBox="0 0 163.01 147.58"><title>bin_checker</title><defs><linearGradient id="linearGradient2805" x1="574.72" x2="574.72" y1="713.31" y2="358.2" gradientTransform="matrix(.26855 0 0 .26458 -54.687 .68832)" gradientUnits="userSpaceOnUse"><stop offset="0" stop-color="gray" stop-opacity=".25"/><stop offset=".54" stop-color="gray" stop-opacity=".12"/><stop offset="1" stop-color="gray" stop-opacity=".1"/></linearGradient><linearGradient id="484e0702-271c-4dc9-aca2-bd1f83d5b37c" x1="352.52" x2="352.52" y1="380.93" y2="201.04" gradientTransform="translate(.01 -.01)" gradientUnits="userSpaceOnUse"><stop offset="0" stop-color="gray" stop-opacity=".25"/><stop offset=".54" stop-color="gray" stop-opacity=".12"/><stop offset="1" stop-color="gray" stop-opacity=".1"/></linearGradient></defs><metadata/><g><g><g><g fill="none" stroke="#727e8c" stroke-dasharray="3.175" stroke-miterlimit="10" stroke-width=".529" transform="translate(-31.731 -72.087) translate(-108.87 260.45) translate(-4.6942 -25.605) matrix(.77256 0 0 .77256 39.738 -29.353)"><circle cx="237.37" cy="-77.159" r="78.581"/><circle cx="237.37" cy="-77.159" r="95.25"/></g><g stroke-width=".267" transform="translate(-31.731 -72.087) translate(-108.87 260.45) translate(-4.6942 -25.605)"><path fill="url(#linearGradient2805)" d="m170.06 95.462h-140.81a6.4156 6.3209 0 0 0-6.4156 6.3209v81.314a6.4156 6.3209 0 0 0 6.4156 6.3209h140.81a6.4156 6.3209 0 0 0 6.4156-6.3209v-81.314a6.4156 6.3209 0 0 0-6.4156-6.3209z" transform="translate(122.46,-229.81)"/><rect width="150.02" height="91.744" x="24.64" y="96.568" fill="#5a8dee" rx="6.663" ry="6.564" transform="translate(122.46,-229.81)"/><rect width="150.02" height="16.82" x="24.64" y="112.62" fill="#338fff" transform="translate(122.46,-229.81)"/><rect width="150.02" height="16.82" x="24.64" y="112.62" opacity=".3" transform="translate(122.46,-229.81)"/><rect width="121.57" height="8.155" x="38.867" y="141.93" fill="#d6d6e3" transform="translate(122.46,-229.81)"/><ellipse cx="48.954" cy="170.47" fill="#338fff" rx="11.899" ry="11.724" transform="translate(122.46,-229.81)"/><ellipse cx="48.954" cy="170.47" opacity=".3" rx="11.899" ry="11.724" transform="translate(122.46,-229.81)"/></g><g transform="translate(-31.731 -72.087) translate(-108.87 260.45) translate(-4.6942 -25.605) matrix(1.2383,0,0,1.2383,-12.315,8.0629)"><g opacity=".5" transform="matrix(.26458 0 0 .26458 141.85 -181.82)"><circle cx="352.52" cy="290.99" r="89.94" fill="url(#484e0702-271c-4dc9-aca2-bd1f83d5b37c)"/></g><circle cx="235.13" cy="-104.83" r="22.397" fill="#69f0ae" stroke-width=".265"/><polygon fill="#fff" points="315.78 279.69 347.52 308.79 392.49 242.66 408.37 255.89 347.52 335.25 302.55 284.99" transform="matrix(.26458 0 0 .26458 141.85 -181.82)"/></g></g></g></g></svg>