<svg xmlns="http://www.w3.org/2000/svg" width="616.101" height="557.783" version="1.1" viewBox="0 0 163.01 147.58"><title>bin_searcher</title><defs><linearGradient id="linearGradient2805" x1="574.72" x2="574.72" y1="713.31" y2="358.2" gradientTransform="matrix(.26855 0 0 .26458 -54.687 .68832)" gradientUnits="userSpaceOnUse"><stop offset="0" stop-color="gray" stop-opacity=".25"/><stop offset=".54" stop-color="gray" stop-opacity=".12"/><stop offset="1" stop-color="gray" stop-opacity=".1"/></linearGradient></defs><metadata/><g><g fill="none" stroke="#727e8c" stroke-dasharray="3.175" stroke-miterlimit="10" stroke-width=".529" transform="translate(-31.731 -72.087) matrix(.77256 0 0 .77256 -73.826 205.49)"><circle cx="237.37" cy="-77.159" r="78.581"/><circle cx="237.37" cy="-77.159" r="95.25"/></g><g stroke-width=".267" transform="translate(-31.731 -72.087) translate(-113.56 234.84)"><path fill="url(#linearGradient2805)" d="m170.06 95.462h-140.81a6.4156 6.3209 0 0 0-6.4156 6.3209v81.314a6.4156 6.3209 0 0 0 6.4156 6.3209h140.81a6.4156 6.3209 0 0 0 6.4156-6.3209v-81.314a6.4156 6.3209 0 0 0-6.4156-6.3209z" transform="translate(122.46,-229.81)"/><rect width="150.02" height="91.744" x="24.64" y="96.568" fill="#5a8dee" rx="6.663" ry="6.564" transform="translate(122.46,-229.81)"/><rect width="150.02" height="16.82" x="24.64" y="112.62" fill="#338fff" transform="translate(122.46,-229.81)"/><rect width="150.02" height="16.82" x="24.64" y="112.62" opacity=".3" transform="translate(122.46,-229.81)"/><rect width="121.57" height="8.155" x="38.867" y="141.93" fill="#d6d6e3" transform="translate(122.46,-229.81)"/><ellipse cx="48.954" cy="170.47" fill="#338fff" rx="11.899" ry="11.724" transform="translate(122.46,-229.81)"/><ellipse cx="48.954" cy="170.47" opacity=".3" rx="11.899" ry="11.724" transform="translate(122.46,-229.81)"/></g><g fill="#b3b3b3"><path fill="#b3b3b3" stroke-width=".238" d="m-88.779 132.31a31.905 32.387 0 1 0 1.8089 47.83l39.135 33.521a2.9401 2.9844 0 1 0 3.792-4.5618l-39.135-33.521a31.907 32.388 0 0 0-5.6009-43.268zm-2.5229 40.04a23.903 24.264 0 1 1-2.8537-34.192 23.903 24.264 0 0 1 2.8537 34.192z" transform="translate(-31.731 -72.087) matrix(.80022 0 0 .7954 228.36 -17.372)"/></g><path fill="#333" stroke-width=".19" d="m128.34 122.02a19.129 19.301 0 0 1-3.2459-25.945q-0.54859 0.55744-1.0607 1.1676a19.128 19.3 0 1 0 29.238 24.893q0.51093-0.61095 0.96227-1.2514a19.129 19.3 0 0 1-25.894 1.1365z" opacity=".3" transform="translate(-31.731 -72.087)"/></g></svg>