<svg xmlns="http://www.w3.org/2000/svg" width="616.101" height="557.783" version="1.1" viewBox="0 0 163.01 147.58"><title>bin_generator</title><defs><linearGradient id="linearGradient2805" x1="574.72" x2="574.72" y1="713.31" y2="358.2" gradientTransform="matrix(.26855 0 0 .26458 -54.687 .68832)" gradientUnits="userSpaceOnUse"><stop offset="0" stop-color="gray" stop-opacity=".25"/><stop offset=".54" stop-color="gray" stop-opacity=".12"/><stop offset="1" stop-color="gray" stop-opacity=".1"/></linearGradient></defs><metadata/><g><g><g><g fill="none" stroke="#727e8c" stroke-dasharray="3.175" stroke-miterlimit="10" stroke-width=".529" transform="translate(-31.731 -72.087) translate(-108.87 260.45) translate(-4.6942 -25.605) matrix(.77256 0 0 .77256 39.738 -29.353)"><circle cx="237.37" cy="-77.159" r="78.581"/><circle cx="237.37" cy="-77.159" r="95.25"/></g><g stroke-width=".267" transform="translate(-31.731 -72.087) translate(-108.87 260.45) translate(-4.6942 -25.605)"><path fill="url(#linearGradient2805)" d="m170.06 95.462h-140.81a6.4156 6.3209 0 0 0-6.4156 6.3209v81.314a6.4156 6.3209 0 0 0 6.4156 6.3209h140.81a6.4156 6.3209 0 0 0 6.4156-6.3209v-81.314a6.4156 6.3209 0 0 0-6.4156-6.3209z" transform="translate(122.46,-229.81)"/><rect width="150.02" height="91.744" x="24.64" y="96.568" fill="#5a8dee" rx="6.663" ry="6.564" transform="translate(122.46,-229.81)"/><rect width="150.02" height="16.82" x="24.64" y="112.62" fill="#338fff" transform="translate(122.46,-229.81)"/><rect width="150.02" height="16.82" x="24.64" y="112.62" opacity=".3" transform="translate(122.46,-229.81)"/><rect width="121.57" height="8.155" x="38.867" y="141.93" fill="#d6d6e3" transform="translate(122.46,-229.81)"/><ellipse cx="48.954" cy="170.47" fill="#338fff" rx="11.899" ry="11.724" transform="translate(122.46,-229.81)"/><ellipse cx="48.954" cy="170.47" opacity=".3" rx="11.899" ry="11.724" transform="translate(122.46,-229.81)"/></g><g><g><g><g fill="#3f3d56" transform="translate(-31.731 -72.087) translate(-108.87 260.45) translate(-4.6942 -25.605) translate(243.68 -76.766) matrix(.69033 0 0 .69033 -152.94 -71.664) translate(-27.751 -102.35) translate(714.78 168.46)"><g stroke-width=".265"><path d="m-441.85-32.038a18.214 18.214 0 1 1-18.214 18.211 18.214 18.214 0 0 1 18.214-18.211m0-4.4979a22.712 22.712 0 1 0 22.712 22.709 22.736 22.736 0 0 0-22.712-22.709z"/><rect width="5.323" height="5.604" x="-445.21" y="-41.848"/><rect width="5.323" height="5.604" x="-389.3" y="187.74" transform="rotate(31)"/><rect width="5.323" height="5.604" x="-229.75" y="351.77" transform="rotate(61)"/><rect width="5.323" height="5.604" x="218.98" y="354.06" transform="rotate(122)"/><rect width="5.323" height="5.604" x="198.67" y="415.52" transform="rotate(119)"/><rect width="5.323" height="5.604" x="-249.31" y="389.75" transform="rotate(58)"/><rect width="5.323" height="5.604" x="368.17" y="261.79" transform="rotate(149)"/><rect width="5.323" height="5.604" x="-445.21" y="8.592"/><rect width="5.323" height="5.604" x="-375.06" y="-217.05" transform="rotate(-31)"/><rect width="5.323" height="5.604" x="382.41" y="-243.69" transform="rotate(211)"/><rect width="6.445" height="4.763" x="-470.43" y="-16.067"/><rect width="6.445" height="4.763" x="413.26" y="11.305" transform="scale(-1)"/><path d="m-399.53-64.822a18.214 18.214 0 1 1-18.214 18.211 18.214 18.214 0 0 1 18.214-18.211m0-4.4979a22.712 22.712 0 1 0 22.712 22.709 22.736 22.736 0 0 0-22.712-22.709z"/><rect width="5.323" height="5.604" x="-402.9" y="-74.63"/><rect width="5.323" height="5.604" x="-369.91" y="137.85" transform="rotate(31)"/><rect width="5.323" height="5.604" x="-237.91" y="298.87" transform="rotate(61)"/><rect width="5.323" height="5.604" x="168.75" y="335.55" transform="rotate(122)"/><rect width="5.323" height="5.604" x="149.49" y="394.4" transform="rotate(119)"/><rect width="5.323" height="5.604" x="-254.69" y="336.49" transform="rotate(58)"/><rect width="5.323" height="5.604" x="315.02" y="268.1" transform="rotate(149)"/><rect width="5.323" height="5.604" x="-402.9" y="-24.193"/><rect width="5.323" height="5.604" x="-321.9" y="-223.36" transform="rotate(-31)"/><rect width="5.323" height="5.604" x="363.03" y="-193.79" transform="rotate(211)"/><rect width="6.445" height="4.763" x="-428.12" y="-48.852"/><rect width="6.445" height="4.763" x="370.95" y="44.089" transform="scale(-1)"/><path d="m-484.17-66.224h0.64293a18.214 18.214 0 0 1-0.61912 36.417h-0.64559a18.214 18.214 0 0 1 0.62178-36.417m0-4.4979a22.712 22.712 0 0 0-0.77788 45.41c0.26458 0 0.52917 0.01323 0.79375 0.01323a22.712 22.712 0 0 0 0.77523-45.41c-0.26458 0-0.52917-0.0132-0.79375-0.0132z"/><rect width="5.323" height="5.604" x="-488.9" y="-59.187" transform="rotate(1.99)"/><rect width="5.323" height="5.604" x="-435.68" y="195.38" transform="rotate(32.99)"/><rect width="5.323" height="5.604" x="-266.1" y="381.58" transform="rotate(62.99)"/><rect width="5.323" height="5.604" x="227.41" y="400.3" transform="rotate(123.99)"/><rect width="5.323" height="5.604" x="204.68" y="462.14" transform="rotate(120.99)"/></g><rect width="5.342" height="5.623" x="-286.09" y="418.75" stroke-width=".265" transform="rotate(60.113)"/><g stroke-width=".265"><rect width="5.323" height="5.604" x="396.68" y="299.16" transform="rotate(150.99)"/><rect width="5.323" height="5.604" x="-488.9" y="-8.752" transform="rotate(1.99)"/><rect width="5.323" height="5.604" x="-403.57" y="-254.41" transform="rotate(-29.01)"/><rect width="5.323" height="5.604" x="428.79" y="-251.32" transform="rotate(212.99)"/><rect width="6.445" height="4.763" x="-514.11" y="-33.409" transform="rotate(1.99)"/><rect width="6.445" height="4.763" x="456.95" y="28.654" transform="rotate(181.99)"/></g></g></g></g></g></g></g></g></svg>