<svg xmlns="http://www.w3.org/2000/svg" width="416.239" height="384.794" version="1.1" viewBox="0 0 110.13 101.81"><title>contract</title><metadata/><g><g transform="translate(-45.099 -93.017) matrix(.13931 0 0 .13937 45.099 93.017)"><path fill="#727e8c" d="m252.65 143.09a47.968 47.968 0 0 0-47.913 47.913v551.99a47.968 47.968 0 0 0 47.913 47.913h404.92a47.968 47.968 0 0 0 47.913-47.913v-551.99a47.968 47.968 0 0 0-47.913-47.913z" transform="translate(-204.74 -84.754)"/><rect width="450.92" height="579.75" x="24.916" y="92.371" fill="#fff"/><g fill="#5a8dee"><rect width="333.02" height="21.877" x="83.864" y="196.29"/><rect width="333.02" height="21.877" x="83.864" y="254.63"/><rect width="333.02" height="21.877" x="83.864" y="312.97"/><rect width="333.02" height="21.877" x="83.864" y="371.31"/><rect width="333.02" height="21.877" x="83.864" y="429.65"/><rect width="333.02" height="21.877" x="83.864" y="487.99"/><rect width="333.02" height="21.877" x="83.864" y="546.33"/></g><rect width="335.71" height="431.62" x="332.2" y="167.06" fill="#e6e6e6" transform="rotate(-10.371 -69.295 1468.6)"/><g fill="#5a8dee"><rect width="247.94" height="16.288" x="352.63" y="246.55" transform="rotate(-10.371 -92.751 1340.4)"/><rect width="247.94" height="16.288" x="360.45" y="289.28" transform="rotate(-10.371 -84.932 1383.1)"/><rect width="247.94" height="16.288" x="368.26" y="332" transform="rotate(-10.371 -77.113 1425.8)"/><rect width="247.94" height="16.288" x="376.08" y="374.72" transform="rotate(-10.371 -69.295 1468.6)"/><rect width="247.94" height="16.288" x="383.9" y="417.45" transform="matrix(.98366 -.18001 .18001 .98366 -273.05 13.621)"/><rect width="247.94" height="16.288" x="391.72" y="460.17" transform="rotate(-10.371 -53.657 1554)"/><rect width="247.94" height="16.288" x="399.54" y="502.9" transform="rotate(-10.371 -45.839 1596.7)"/></g><rect width="94.99" height="122.13" x="776.83" y="612.37" fill="#e6e6e6" transform="rotate(-10.371 254.98 1759.1)"/><g fill="#fff"><rect width="70.154" height="4.609" x="782.61" y="634.86" transform="rotate(-10.371 248.34 1722.9)"/><rect width="70.154" height="4.609" x="784.82" y="646.95" transform="rotate(-10.371 250.55 1734.9)"/><rect width="70.154" height="4.609" x="787.03" y="659.04" transform="rotate(-10.371 252.77 1747)"/><rect width="70.154" height="4.609" x="789.25" y="671.13" transform="rotate(-10.371 254.98 1759.1)"/><rect width="70.154" height="4.609" x="791.46" y="683.22" transform="rotate(-10.371 257.19 1771.2)"/><rect width="70.154" height="4.609" x="793.67" y="695.31" transform="rotate(-10.371 259.4 1783.3)"/><rect width="70.154" height="4.609" x="795.88" y="707.4" transform="rotate(-10.371 261.62 1795.4)"/></g><path fill="#727e8c" d="m538.6 115.14h-39.735v-8.1347a22.251 22.251 0 0 0-22.251-22.251h-43.008a22.251 22.251 0 0 0-22.251 22.251v8.1347h-39.735a22.251 22.251 0 0 0-22.251 22.251v61.613h211.48v-61.613a22.251 22.251 0 0 0-22.251-22.251z" transform="translate(-204.74 -84.754)"/><path fill="#3f3d56" d="m440.85 714.72c6.5698-4.4961 13.322-9.1722 21.124-11.216 7.1182-1.8646 15.292-1.3714 20.922 3.8406 4.5436 4.2062 6.4619 10.671 3.0955 16.205a10.298 10.298 0 0 1-6.8225 4.9641 8.2186 8.2186 0 0 1-7.3887-2.8866c-1.7651-1.9504-2.8212-4.8332-1.8832-7.4042 0.98627-2.7034 3.6246-4.3568 6.2159-5.2795a46.004 46.004 0 0 1 9.2702-1.915l124.43-17.034a1.8359 1.8359 0 0 0 1.2733-2.2426 1.8701 1.8701 0 0 0-2.2426-1.2733l-116.93 16.008c-4.2295 0.579-8.5186 0.99359-12.704 1.8443a21.363 21.363 0 0 0-9.1218 3.7888c-5.6014 4.4347-5.2012 12.279-0.0466 16.918 5.2181 4.6965 12.784 3.888 17.363-1.2992a15.743 15.743 0 0 0 1.1938-19.291c-4.9986-7.5372-14.107-10.433-22.81-9.364-10.065 1.2363-18.598 6.8939-26.773 12.489-1.9248 1.3172-0.103 4.4784 1.8403 3.1484z" transform="translate(-204.74 -84.754)"/><path fill="#a0616a" d="m851.14 579.59 1.2154 12.154s-7.2925 26.739 8.5079 26.739 3.6462-26.739 3.6462-26.739l1.2154-9.7233z" transform="translate(-204.74 -84.754)"/><path fill="#a0616a" d="m961.54 539.1-5.5768 10.867s-20.639 18.498-7.3694 27.075 17.577-20.477 17.577-20.477l6.2988-7.5063z" transform="translate(-204.74 -84.754)"/><path fill="#727e8c" d="m870.59 590.53 17.016 115.46 8.5079 82.648s7.2925 18.231 31.601 2.4308l-3.6462-47.401-2.4308-42.54s-2.4308-41.324-4.8616-48.617 1.2154-31.601 1.2154-31.601l9.7233-40.109z" transform="translate(-204.74 -84.754)"/><path fill="#2f2e41" d="m898.55 786.21-9.7233 10.939s-14.585-4.8617-18.231 4.8616 27.955 12.154 27.955 12.154 32.816 2.4308 32.816 0-0.8793-21.022-5.3013-22.057-27.515-5.8972-27.515-5.8972z" transform="translate(-204.74 -84.754)"/><path fill="#727e8c" d="m916.78 584.45 17.016 121.54 8.5079 82.648s7.2925 18.231 31.601 2.4308l-3.6462-47.401-2.4308-42.54s-2.4308-41.324-4.8617-48.617 1.2154-31.601 1.2154-31.601l-2.4308-44.97z" transform="translate(-204.74 -84.754)"/><path fill="#2f2e41" d="m944.73 786.21-9.7233 10.939s-14.585-4.8617-18.231 4.8616 27.955 12.154 27.955 12.154 32.816 2.4308 32.816 0-0.8793-21.022-5.3013-22.057-27.515-5.8972-27.515-5.8972z" transform="translate(-204.74 -84.754)"/><circle cx="675.58" cy="282.14" r="25.524" fill="#a0616a"/><polygon fill="#a0616a" points="694.42 293.68 705.35 311.92 677.4 324.07 673.75 302.19"/><g fill="#5a8dee"><path d="m913.13 394.85s-25.524-2.4308-35.247 13.37l-23.99 18.232a13.829 13.829 0 0 0-5.3416 12.824l20.824 157.33 30.385-1.2154 49.832-9.7233 14.585-3.6462-7.2925-64.417s-8.5079-25.524 1.2154-42.54l-4.8616-59.555-34.032-13.37z" transform="translate(-204.74 -84.754)"/><path d="m856.01 431.31-1.8231-3.0385s-2.4308 0-2.4308 4.8617-4.254 110-4.254 110l-1.2154 40.109 23.093 2.4308 8.5079-75.356-3.6462-49.832z" transform="translate(-204.74 -84.754)"/><path d="m936.22 413.08 17.016 2.4308a112.95 112.95 0 0 1 17.016 23.093c7.2925 13.37 29.17 38.893 24.308 58.34s-19.447 54.694-19.447 54.694l-23.093-9.7233s18.231-42.54 17.016-46.186-15.8-25.524-15.8-25.524z" transform="translate(-204.74 -84.754)"/></g><path fill="#2f2e41" d="m862.69 352.92s-20.662-1.2154-7.2925-14.585c0 0 10.939-4.8617 15.8-2.4308 0 0 7.2925-4.8617 7.2925-2.4308 0 0 25.524-7.2925 29.17 18.231s-2.4308 37.678-2.4308 37.678l-17.016-1.2154s3.6462-20.662-9.7233-18.231c0 0-10.939 3.6462-12.154 0s-3.6462-17.016-3.6462-17.016z" transform="translate(-204.74 -84.754)"/><polygon fill-opacity=".217" points="673.75 430.11 666.46 499.09 667.68 499.09 678.62 426.17 671.32 381.2" opacity=".2"/></g></g></svg>